<svg xmlns="http://www.w3.org/2000/svg" viewBox="0 0 64 64">
  <rect x="0" y="0" width="64" height="64" rx="14" fill="#1B4DB1"/>
  <g fill="#FFFFFF">
    <rect x="16.50" y="17.50" width="1.8" height="1.8"/><rect x="23.70" y="17.50" width="1.8" height="1.8"/><rect x="16.50" y="19.30" width="1.8" height="1.8"/><rect x="18.30" y="19.30" width="1.8" height="1.8"/><rect x="21.90" y="19.30" width="1.8" height="1.8"/><rect x="23.70" y="19.30" width="1.8" height="1.8"/><rect x="16.50" y="21.10" width="1.8" height="1.8"/><rect x="20.10" y="21.10" width="1.8" height="1.8"/><rect x="23.70" y="21.10" width="1.8" height="1.8"/><rect x="16.50" y="22.90" width="1.8" height="1.8"/><rect x="20.10" y="22.90" width="1.8" height="1.8"/><rect x="23.70" y="22.90" width="1.8" height="1.8"/><rect x="16.50" y="24.70" width="1.8" height="1.8"/><rect x="23.70" y="24.70" width="1.8" height="1.8"/><rect x="16.50" y="26.50" width="1.8" height="1.8"/><rect x="23.70" y="26.50" width="1.8" height="1.8"/><rect x="16.50" y="28.30" width="1.8" height="1.8"/><rect x="23.70" y="28.30" width="1.8" height="1.8"/><rect x="29.30" y="17.50" width="1.8" height="1.8"/><rect x="31.10" y="17.50" width="1.8" height="1.8"/><rect x="32.90" y="17.50" width="1.8" height="1.8"/><rect x="34.70" y="17.50" width="1.8" height="1.8"/><rect x="27.50" y="19.30" width="1.8" height="1.8"/><rect x="27.50" y="21.10" width="1.8" height="1.8"/><rect x="29.30" y="22.90" width="1.8" height="1.8"/><rect x="31.10" y="22.90" width="1.8" height="1.8"/><rect x="32.90" y="22.90" width="1.8" height="1.8"/><rect x="34.70" y="24.70" width="1.8" height="1.8"/><rect x="34.70" y="26.50" width="1.8" height="1.8"/><rect x="27.50" y="28.30" width="1.8" height="1.8"/><rect x="29.30" y="28.30" width="1.8" height="1.8"/><rect x="31.10" y="28.30" width="1.8" height="1.8"/><rect x="32.90" y="28.30" width="1.8" height="1.8"/><rect x="38.50" y="17.50" width="1.8" height="1.8"/><rect x="40.30" y="17.50" width="1.8" height="1.8"/><rect x="42.10" y="17.50" width="1.8" height="1.8"/><rect x="43.90" y="17.50" width="1.8" height="1.8"/><rect x="45.70" y="17.50" width="1.8" height="1.8"/><rect x="42.10" y="19.30" width="1.8" height="1.8"/><rect x="42.10" y="21.10" width="1.8" height="1.8"/><rect x="42.10" y="22.90" width="1.8" height="1.8"/><rect x="42.10" y="24.70" width="1.8" height="1.8"/><rect x="42.10" y="26.50" width="1.8" height="1.8"/><rect x="42.10" y="28.30" width="1.8" height="1.8"/>
  </g>
  <rect x="10" y="39" width="9" height="12" rx="2" fill="#FFFFFF"/>
  <rect x="22" y="39" width="9" height="12" rx="2" fill="#FFFFFF"/>
  <rect x="34" y="39" width="9" height="12" rx="2" fill="#FFFFFF"/>
  <rect x="46" y="39" width="8" height="12" rx="2" fill="none" stroke="#FFFFFF" stroke-width="2" stroke-dasharray="2 2"/>
</svg>
